<?xml version="1.0" encoding="UTF-8"?>
<svg xmlns="http://www.w3.org/2000/svg" xmlns:xlink="http://www.w3.org/1999/xlink" width="16pt" height="16pt" viewBox="0 0 16 16" version="1.1">
<g id="surface1">
<path style=" stroke:none;fill-rule:nonzero;fill:rgb(0%,0%,0%);fill-opacity:1;" d="M 5.15625 10.34375 L 13.65625 10.34375 C 13.867188 10.34375 14.050781 10.203125 14.105469 10.003906 L 15.980469 3.441406 C 16.023438 3.300781 15.992188 3.148438 15.90625 3.03125 C 15.816406 2.914062 15.679688 2.84375 15.53125 2.84375 L 4.074219 2.84375 L 3.738281 1.335938 C 3.691406 1.121094 3.5 0.96875 3.28125 0.96875 L 0.46875 0.96875 C 0.210938 0.96875 0 1.179688 0 1.4375 C 0 1.695312 0.210938 1.90625 0.46875 1.90625 L 2.90625 1.90625 C 2.964844 2.171875 4.507812 9.121094 4.597656 9.523438 C 4.097656 9.738281 3.75 10.234375 3.75 10.8125 C 3.75 11.585938 4.378906 12.21875 5.15625 12.21875 L 13.65625 12.21875 C 13.914062 12.21875 14.125 12.007812 14.125 11.75 C 14.125 11.492188 13.914062 11.28125 13.65625 11.28125 L 5.15625 11.28125 C 4.898438 11.28125 4.6875 11.070312 4.6875 10.8125 C 4.6875 10.554688 4.898438 10.34375 5.15625 10.34375 Z M 14.910156 3.78125 L 13.300781 9.40625 L 5.53125 9.40625 L 4.28125 3.78125 Z M 14.910156 3.78125 "/>
<path style=" stroke:none;fill-rule:nonzero;fill:rgb(0%,0%,0%);fill-opacity:1;" d="M 4.6875 13.625 C 4.6875 14.398438 5.316406 15.03125 6.09375 15.03125 C 6.867188 15.03125 7.5 14.398438 7.5 13.625 C 7.5 12.847656 6.867188 12.21875 6.09375 12.21875 C 5.316406 12.21875 4.6875 12.847656 4.6875 13.625 Z M 6.09375 13.15625 C 6.351562 13.15625 6.5625 13.367188 6.5625 13.625 C 6.5625 13.882812 6.351562 14.09375 6.09375 14.09375 C 5.835938 14.09375 5.625 13.882812 5.625 13.625 C 5.625 13.367188 5.835938 13.15625 6.09375 13.15625 Z M 6.09375 13.15625 "/>
<path style=" stroke:none;fill-rule:nonzero;fill:rgb(0%,0%,0%);fill-opacity:1;" d="M 11.3125 13.625 C 11.3125 14.398438 11.941406 15.03125 12.71875 15.03125 C 13.492188 15.03125 14.125 14.398438 14.125 13.625 C 14.125 12.847656 13.492188 12.21875 12.71875 12.21875 C 11.941406 12.21875 11.3125 12.847656 11.3125 13.625 Z M 12.71875 13.15625 C 12.976562 13.15625 13.1875 13.367188 13.1875 13.625 C 13.1875 13.882812 12.976562 14.09375 12.71875 14.09375 C 12.460938 14.09375 12.25 13.882812 12.25 13.625 C 12.25 13.367188 12.460938 13.15625 12.71875 13.15625 Z M 12.71875 13.15625 "/>
</g>
</svg>
