<?xml version="1.0" encoding="UTF-8"?>
<svg xmlns="http://www.w3.org/2000/svg" xmlns:xlink="http://www.w3.org/1999/xlink" width="16pt" height="16pt" viewBox="0 0 16 16" version="1.1">
<g id="surface1">
<path style=" stroke:none;fill-rule:nonzero;fill:rgb(0%,0%,0%);fill-opacity:1;" d="M 11.464844 1.378906 C 10.128906 1.371094 8.859375 1.957031 8 2.976562 C 7.144531 1.949219 5.875 1.359375 4.535156 1.378906 C 2.03125 1.378906 0 3.40625 0 5.914062 C 0 10.207031 7.492188 14.398438 7.796875 14.5625 C 7.921875 14.644531 8.078125 14.644531 8.203125 14.5625 C 8.507812 14.398438 16 10.269531 16 5.914062 C 16 3.40625 13.96875 1.378906 11.464844 1.378906 Z M 8 13.75 C 6.824219 13.0625 0.808594 9.398438 0.808594 5.914062 C 0.808594 3.855469 2.480469 2.1875 4.535156 2.1875 C 5.796875 2.171875 6.976562 2.804688 7.65625 3.867188 C 7.792969 4.058594 8.058594 4.101562 8.25 3.960938 C 8.285156 3.9375 8.316406 3.90625 8.34375 3.867188 C 9.46875 2.144531 11.78125 1.664062 13.503906 2.789062 C 14.558594 3.476562 15.191406 4.652344 15.191406 5.914062 C 15.191406 9.4375 9.175781 13.082031 8 13.75 Z M 8 13.75 "/>
</g>
</svg>
